<svg width="200" height="200" viewBox="0 0 200 200" fill="none" xmlns="http://www.w3.org/2000/svg">
<path d="M59 26C40.7735 26 26 40.7735 26 59C26 77.2265 40.7735 92 59 92C77.2265 92 92 77.2265 92 59C92 40.7735 77.2265 26 59 26ZM59 82.5716C46.0035 82.5716 35.4284 71.9965 35.4284 59C35.4284 46.0032 46.0035 35.4284 59 35.4284C71.9969 35.4284 82.5716 46.0032 82.5716 59C82.5716 71.9965 71.9969 82.5716 59 82.5716Z" fill="#333"/>
<path d="M140.5 26C121.997 26 107 40.7735 107 59C107 77.2265 121.997 92 140.5 92C159.003 92 174 77.2265 174 59C174 40.7735 159.003 26 140.5 26ZM140.5 82.5716C127.307 82.5716 116.571 71.9965 116.571 59C116.571 46.0032 127.307 35.4284 140.5 35.4284C153.693 35.4284 164.428 46.0032 164.428 59C164.428 71.9965 153.693 82.5716 140.5 82.5716Z" fill="#333"/>
<path d="M59 107C40.7735 107 26 121.773 26 140C26 158.227 40.7735 173 59 173C77.2265 173 92 158.227 92 140C92 121.773 77.2265 107 59 107ZM59 163.572C46.0035 163.572 35.4284 152.997 35.4284 140C35.4284 127.003 46.0035 116.428 59 116.428C71.9969 116.428 82.5716 127.003 82.5716 140C82.5716 152.997 71.9969 163.572 59 163.572Z" fill="#333"/>
<path d="M140.5 107C121.997 107 107 121.773 107 140C107 158.227 121.997 173 140.5 173C159.003 173 174 158.227 174 140C174 121.773 159.003 107 140.5 107ZM140.5 163.572C127.307 163.572 116.571 152.997 116.571 140C116.571 127.003 127.307 116.428 140.5 116.428C153.693 116.428 164.428 127.003 164.428 140C164.428 152.997 153.693 163.572 140.5 163.572Z" fill="#333"/>
</svg>
