<?xml version="1.0" standalone="no"?><!DOCTYPE svg PUBLIC "-//W3C//DTD SVG 1.1//EN" "http://www.w3.org/Graphics/SVG/1.1/DTD/svg11.dtd"><svg t="1749797785998" class="icon" viewBox="0 0 1024 1024" version="1.1" xmlns="http://www.w3.org/2000/svg" p-id="1546" xmlns:xlink="http://www.w3.org/1999/xlink" width="200" height="200"><path d="M558.467 135.272C765.61 153.395 918.843 336.009 900.72 543.153c-24.557 242.899-235.774 344.05-407.882 342.253-46.422 2.554-87.398-1.03-175.564-15.36-25.493-4.143-173.073-39.723-193.01-55.662 1.039 0.456 76.684-84.684 73.225-109.137-30.477-79.245-55.99-123.858-46.904-227.722 18.123-207.144 200.738-360.376 407.882-342.253z m-7.67 87.665c-158.728-13.887-298.66 103.53-312.547 262.258-4.193 47.933-0.196 77.593 13.094 115.625 2.766 7.914 5.884 16.162 10.477 27.799l0.607 1.537c0.41 1.038 0.833 2.103 1.268 3.196 0.595 1.498 2.074 5.206 3.594 9.014l0.38 0.953c1.52 3.81 3.01 7.544 3.626 9.094 3.17 7.971 5.77 14.593 8.328 21.245l3.596 9.349 1.402 9.917c1.67 11.801 1.143 22.875-0.846 33.612-1.361 7.348-3.38 14.308-5.938 21.171-2.57 6.896-5.677 13.676-9.311 20.56l-0.186 0.348 0.974 0.246 0.825 0.208 1.646 0.413c26.57 6.657 51.095 12.276 59.272 13.65l0.332 0.054c82.442 13.399 117.776 16.49 156.615 14.353l2.874-0.158 2.878 0.03c73.342 0.766 149.34-21.536 207.114-62.914 63.273-45.317 102.601-110.818 112.019-197.56l0.204-1.946 0.338-4.263c11.044-155.175-103.15-291.268-257.886-307.337l-4.749-0.454z" fill="#3b82f6" p-id="1547"></path><path d="M525 188.245l241.206 94.617 71.99 162.362-8.202 200.338L642.95 811.44l-290.96 16.374-122.14-25.892 7.916-76.737-39.634-195.717 0.884-6.023 0.234-1.599 5.935-40.464 0.436-2.974 7.053-48.086 86.428-147.46L321 247.869l204-59.623z m-12.867 124c-24.3 0-44 19.7-44 44v112h-112c-24.3 0-44 19.7-44 44s19.7 44 44 44h112v112c0 24.3 19.7 44 44 44s44-19.7 44-44v-112h112c24.3 0 44-19.7 44-44s-19.7-44-44-44h-112v-112c0-24.3-19.7-44-44-44z" fill="#3b82f6" p-id="1548"></path></svg>