<?xml version="1.0" standalone="no"?><!DOCTYPE svg PUBLIC "-//W3C//DTD SVG 1.1//EN" "http://www.w3.org/Graphics/SVG/1.1/DTD/svg11.dtd"><svg t="1750153710359" class="icon" viewBox="0 0 1024 1024" version="1.1" xmlns="http://www.w3.org/2000/svg" p-id="14747" xmlns:xlink="http://www.w3.org/1999/xlink" width="200" height="200"><path d="M526.48 75.92L512 64l-14.48 11.92C396.04 159.36 280.28 178.56 160 193.28v305.16c0 140.48 61.44 269.28 159.36 334.08L512 960l192.64-127.48c97.92-64.8 159.36-193.6 159.36-334.08V193.28c-120.28-14.72-236-33.96-337.52-117.36z" fill="#90E8BF" p-id="14748"></path><path d="M354.68 779.12C275.28 726.6 224 616.4 224 498.4V249.28c100.52-14.88 197.92-39.2 288-103.84 90.08 64.68 187.48 89 288 103.84v249.12c0 118-51.28 228.16-130.68 280.72L512 883.24l-157.32-104.12z" fill="#1BC185" p-id="14749"></path><path d="M447.68 635.36l-107.64-107.64a16.032 16.032 0 0 1 0-22.64l28.28-28.28a16.032 16.032 0 0 1 22.64 0l68.04 68.04 174.04-174.04a16.032 16.032 0 0 1 22.64 0l28.28 28.28a16.032 16.032 0 0 1 0 22.64l-213.64 213.64a16.032 16.032 0 0 1-22.64 0z" fill="#FFFFFF" p-id="14750"></path></svg>