<?xml version="1.0" standalone="no"?><!DOCTYPE svg PUBLIC "-//W3C//DTD SVG 1.1//EN" "http://www.w3.org/Graphics/SVG/1.1/DTD/svg11.dtd"><svg t="1751853456585" class="icon" viewBox="0 0 1024 1024" version="1.1" xmlns="http://www.w3.org/2000/svg" p-id="7640" xmlns:xlink="http://www.w3.org/1999/xlink" width="200" height="200"><path d="M51.2 768c30.72 0 51.2-20.48 51.2-51.2v-102.4c0-30.72-20.48-51.2-51.2-51.2s-51.2 20.48-51.2 51.2v102.4c0 30.72 20.48 51.2 51.2 51.2zM51.2 460.8c30.72 0 51.2-20.48 51.2-51.2V307.2c0-30.72-20.48-51.2-51.2-51.2s-51.2 20.48-51.2 51.2v102.4c0 30.72 20.48 51.2 51.2 51.2zM102.4 0H51.2C20.48 0 0 20.48 0 51.2v51.2c0 30.72 20.48 51.2 51.2 51.2s51.2-20.48 51.2-51.2c30.72 0 51.2-20.48 51.2-51.2s-20.48-51.2-51.2-51.2zM102.4 921.6c0-30.72-20.48-51.2-51.2-51.2s-51.2 20.48-51.2 51.2v51.2c0 30.72 20.48 51.2 51.2 51.2h51.2c30.72 0 51.2-20.48 51.2-51.2s-20.48-51.2-51.2-51.2zM409.6 921.6H307.2c-30.72 0-51.2 20.48-51.2 51.2s20.48 51.2 51.2 51.2h102.4c30.72 0 51.2-20.48 51.2-51.2s-20.48-51.2-51.2-51.2zM972.8 0h-358.4c-30.72 0-51.2 20.48-51.2 51.2v921.6c0 30.72 20.48 51.2 51.2 51.2h358.4c30.72 0 51.2-20.48 51.2-51.2V51.2c0-30.72-20.48-51.2-51.2-51.2z m-51.2 921.6h-256V102.4h256v819.2zM409.6 0H307.2c-30.72 0-51.2 20.48-51.2 51.2s20.48 51.2 51.2 51.2h102.4c30.72 0 51.2-20.48 51.2-51.2s-20.48-51.2-51.2-51.2z" fill="#2c2c2c" p-id="7641"></path></svg>