<?xml version="1.0" standalone="no"?><!DOCTYPE svg PUBLIC "-//W3C//DTD SVG 1.1//EN" "http://www.w3.org/Graphics/SVG/1.1/DTD/svg11.dtd"><svg t="1744076230674" class="icon" viewBox="0 0 1024 1024" version="1.1" xmlns="http://www.w3.org/2000/svg" p-id="11615" data-spm-anchor-id="a313x.search_index.0.i1.4e853a819xIUPI" xmlns:xlink="http://www.w3.org/1999/xlink" width="200" height="200"><path d="M894.030769 202.043077c-33.476923-5.513846-62.621538-12.603077-66.953846-73.649231-0.393846-3.150769-2.363077-5.513846-4.726154-7.483077l-4.726154-2.363077c-1.969231-0.393846-3.938462-0.787692-5.513846-0.393846-1.969231 0-3.544615 0.393846-5.513846 0.787692-1.575385 0.787692-3.150769 1.575385-4.726154 2.756924-2.363077 1.969231-4.332308 4.332308-4.332307 7.483076-4.332308 61.44-34.658462 67.347692-67.741539 72.861539-1.575385 0.393846-3.150769 0.787692-4.726154 1.969231-1.575385 0.787692-2.756923 1.969231-3.938461 3.150769-0.787692 1.575385-1.969231 2.756923-2.363077 4.726154-0.393846 1.575385-0.787692 3.150769-0.787693 5.12 0 1.575385 0.393846 3.544615 0.787693 5.12 0.787692 1.575385 1.575385 3.150769 2.756923 4.332307 0.787692 1.575385 2.363077 2.363077 3.544615 3.544616 1.575385 0.787692 3.150769 1.181538 4.726154 1.575384 33.870769 4.726154 62.621538 24.418462 66.953846 76.8 0 1.969231 0.393846 3.544615 1.181539 5.513847 0.787692 1.969231 1.969231 3.544615 3.150769 4.726153 1.181538 1.575385 2.756923 2.756923 4.726154 3.544616 1.575385 0.787692 3.150769 1.181538 5.12 1.575384h1.575384c1.969231-0.393846 3.544615-0.787692 5.513847-1.575384 1.575385-0.787692 3.150769-1.969231 4.332307-3.544616 1.575385-1.181538 2.363077-2.756923 3.150769-4.726153 0.787692-1.969231 1.181538-3.544615 1.575385-5.513847 3.938462-52.381538 33.083077-72.073846 66.56-76.8 1.575385-0.393846 3.150769-0.787692 4.726154-1.575384 1.575385-1.181538 2.756923-1.969231 3.938461-3.544616 1.181538-1.181538 1.969231-2.756923 2.363077-4.332307 0.787692-1.575385 0.787692-3.544615 1.181539-5.12 0-1.969231-0.393846-3.544615-1.181539-5.12a10.752 10.752 0 0 0-2.363077-4.726154c-1.181538-1.181538-2.363077-2.363077-3.938461-3.150769-1.181538-1.181538-2.756923-1.575385-4.332308-1.969231z m0 582.104615c-33.476923-5.513846-62.621538-12.603077-66.953846-74.043077-0.393846-3.150769-2.363077-5.12-4.726154-7.08923a13.312 13.312 0 0 0-4.726154-2.363077c-1.969231-0.393846-3.938462-0.787692-5.513846-0.787693-1.969231 0-3.544615 0.393846-5.513846 1.181539-1.575385 0.393846-3.150769 1.575385-4.726154 2.756923-2.363077 1.575385-4.332308 4.332308-4.332307 7.483077-4.332308 61.046154-34.658462 67.347692-67.741539 72.861538-1.575385 0.393846-3.150769 0.787692-4.726154 1.575385-1.575385 1.181538-2.756923 1.969231-3.544615 3.544615-1.181538 1.181538-1.969231 2.756923-2.756923 4.332308-0.393846 1.969231-0.787692 3.544615-0.787693 5.12 0 1.969231 0.393846 3.544615 1.181539 5.12 0.393846 1.575385 1.181538 3.150769 2.363077 4.726154 1.181538 1.181538 2.363077 2.363077 3.544615 3.150769 1.575385 0.787692 3.150769 1.575385 4.726154 1.575385 33.870769 5.12 62.621538 24.418462 66.953846 76.8 0 1.969231 0.393846 3.938462 1.181539 5.907692 0.787692 1.575385 1.969231 3.150769 3.150769 4.726154 1.181538 1.181538 2.756923 2.363077 4.726154 3.544615 1.575385 0.787692 3.150769 1.181538 5.12 1.575385h1.575384c1.969231-0.393846 3.544615-0.787692 5.513847-1.575385 1.575385-1.181538 3.150769-2.363077 4.332307-3.544615 1.575385-1.575385 2.363077-3.150769 3.150769-4.726154 0.787692-1.969231 1.181538-3.938462 1.575385-5.907692 3.938462-52.381538 33.083077-71.68 66.56-76.8 1.575385 0 3.150769-0.787692 4.726154-1.575385 1.575385-0.787692 2.756923-1.969231 3.938461-3.150769l2.363077-4.726154c0.393846-1.575385 0.787692-3.150769 0.787693-5.12 0-1.575385-0.393846-3.150769-0.787693-5.12a9.373538 9.373538 0 0 0-2.363077-4.332308c-1.181538-1.575385-2.363077-2.363077-3.938461-3.544615-1.181538-0.787692-2.756923-1.181538-4.332308-1.575385z" fill="#1890FF" p-id="11616" data-spm-anchor-id="a313x.search_index.0.i2.4e853a819xIUPI" class=""></path><path d="M760.516923 450.166154c-121.304615-19.692308-228.824615-45.686154-244.184615-269.784616-0.787692-11.421538-8.270769-20.086154-17.329231-26.387692-2.756923-1.969231-5.513846-3.544615-8.664615-5.12-2.756923-1.181538-5.907692-2.756923-9.058462-3.544615a87.079385 87.079385 0 0 0-19.692308-2.756923c-3.544615 0.393846-6.695385 0.393846-9.846154 1.181538-3.150769 0.787692-6.695385 1.575385-9.846153 2.756923-3.150769 1.181538-5.907692 2.363077-9.058462 3.938462-2.756923 1.969231-5.513846 3.544615-8.270769 5.907692-8.664615 6.695385-15.753846 15.753846-16.541539 27.175385-15.753846 224.492308-126.030769 246.941538-247.72923 266.633846-24.024615 3.938462-42.535385 26.781538-42.141539 53.956923 0 27.175385 18.116923 50.018462 42.929231 53.563077 122.88 17.329231 228.430769 89.009231 243.790769 280.418461 2.756923 30.72 25.206154 54.350769 52.775385 56.713847H463.556923c27.569231-2.363077 50.018462-25.993846 52.381539-56.713847 15.753846-191.409231 120.910769-263.089231 244.184615-280.418461 24.418462-3.544615 42.929231-26.387692 42.929231-53.563077 0-27.175385-18.116923-50.018462-42.535385-53.956923z" fill="#2c2c2c" p-id="11617" data-spm-anchor-id="a313x.search_index.0.i0.4e853a819xIUPI" class=""></path></svg>