<svg width="200" height="200" viewBox="0 0 200 200" fill="none" xmlns="http://www.w3.org/2000/svg">
<path fill-rule="evenodd" clip-rule="evenodd" d="M114.509 36.5859C120.06 36.586 125.401 38.5178 129.353 41.9805C133.307 45.4461 135.552 50.1695 135.552 55.1191V58.8145H139.876C146.773 58.8145 153.404 61.2152 158.308 65.5117C163.214 69.8111 165.993 75.6653 165.993 81.7939V130.697C165.993 136.826 163.214 142.68 158.308 146.979C153.404 151.276 146.773 153.676 139.876 153.676H58.7002C51.8032 153.676 45.1717 151.276 40.2686 146.979C35.3623 142.68 32.5831 136.826 32.583 130.697V81.7939C32.583 75.6654 35.3624 69.8111 40.2686 65.5117C45.1717 61.2152 51.8032 58.8145 58.7002 58.8145H63.0234V55.1191C63.0234 50.1696 65.2688 45.4461 69.2236 41.9805C73.1753 38.5178 78.5161 36.5861 84.0674 36.5859H114.509ZM44.2295 130.697C44.2295 134.001 45.7275 137.193 48.4326 139.563C51.141 141.937 54.8329 143.284 58.7002 143.284H139.876C143.743 143.284 147.435 141.937 150.144 139.563C152.849 137.193 154.346 134.001 154.346 130.697V109.218H125.383C125.172 112.712 123.495 116.006 120.691 118.463C117.691 121.092 113.64 122.556 109.435 122.556H89.1406C84.9349 122.556 80.8849 121.092 77.8848 118.463C75.0811 116.006 73.4039 112.712 73.1934 109.218H44.2295V130.697ZM89.1406 95.8809C87.9646 95.881 86.8532 96.2914 86.0479 96.9971C85.2456 97.7001 84.8174 98.6314 84.8174 99.5771V108.468C84.8174 109.414 85.2456 110.345 86.0479 111.048C86.8532 111.754 87.9646 112.164 89.1406 112.164H109.435C110.611 112.164 111.723 111.754 112.528 111.048C113.331 110.345 113.759 109.414 113.759 108.468V99.5771C113.759 98.6314 113.331 97.7001 112.528 96.9971C111.723 96.2913 110.611 95.8809 109.435 95.8809H89.1406ZM58.7002 69.2061C54.833 69.2061 51.1409 70.5536 48.4326 72.9268C45.7274 75.2973 44.2295 78.49 44.2295 81.7939V98.8271H73.1934C73.4039 95.3327 75.0811 92.0389 77.8848 89.582C80.8849 86.9531 84.9349 85.4894 89.1406 85.4893H109.435C113.64 85.4893 117.691 86.953 120.691 89.582C123.495 92.0389 125.172 95.3327 125.383 98.8271H154.346V81.7939C154.346 78.49 152.849 75.2973 150.144 72.9268C147.435 70.5537 143.743 69.2061 139.876 69.2061H58.7002ZM84.0674 46.9775C81.5457 46.9777 79.1436 47.856 77.3867 49.3955C75.633 50.9323 74.6709 52.9943 74.6709 55.1191V58.8145H123.905V55.1191C123.905 52.9943 122.943 50.9323 121.189 49.3955C119.433 47.8561 117.03 46.9776 114.509 46.9775H84.0674Z" fill="#202425"/>
</svg>
