<svg width="40" height="40" viewBox="0 0 40 40" fill="none" xmlns="http://www.w3.org/2000/svg">
<circle cx="20" cy="20" r="20" fill="#217AFF"/>
<path d="M25.9031 14.1133H22.9675V22.2344C22.9678 22.3596 22.9678 22.4846 22.9612 22.6108H22.958C22.9573 22.6376 22.9583 22.6636 22.9563 22.6916C22.8064 25.4722 20.5055 27.5033 17.8104 27.3486C16.5416 27.2758 15.4136 26.7084 14.5898 25.8395C15.6198 27.4891 17.3753 28.6281 19.4157 28.7452C22.5868 28.9278 25.3375 26.5839 25.828 23.4155C25.8565 23.2017 25.879 22.9839 25.8907 22.7633C25.8978 22.6313 25.8958 22.5005 25.896 22.3697H25.9031V14.1133Z" fill="white"/>
<path d="M19.3926 29.1694C15.8898 28.9681 13.1749 25.951 13.1978 22.3697C13.1968 22.2584 13.1987 22.1474 13.2046 22.0342C13.2049 22.0264 13.2065 22.0189 13.207 22.011H13.1978V14.1133H13.1973H10.2622V22.3697V22.6199L10.2722 22.612C10.4149 26.7334 13.579 30.1384 17.647 30.3727C20.2039 30.5194 22.5407 29.3816 24.0714 27.5057C22.8255 28.6286 21.1719 29.2711 19.3926 29.1694Z" fill="white"/>
<path d="M27.9865 16.6681C27.7827 16.6681 27.5741 16.6681 27.3645 16.6681V17.8907C27.5995 17.8907 27.7815 17.8907 27.9865 17.8907C28.0693 17.8907 28.1403 17.8907 28.1952 17.8907C29.1873 17.8907 29.8301 17.2788 29.8301 17.2788L30.465 16.672H30.4543L30.465 16.668C30.465 16.6681 29.3279 16.6681 27.9865 16.6681Z" fill="white"/>
<path d="M32.8767 17.8905C33.0807 17.8905 33.2893 17.8905 33.4989 17.8905V16.668C33.2639 16.668 33.0821 16.668 32.8767 16.668C32.7941 16.668 32.7232 16.668 32.6682 16.668C31.6765 16.668 31.0331 17.2799 31.0331 17.2799L30.3984 17.8867H30.4089L30.3984 17.8907C30.3984 17.8905 31.5352 17.8905 32.8767 17.8905Z" fill="white"/>
<path d="M31.0232 14.7552C31.0232 14.5442 31.0232 14.3294 31.0232 14.1133H29.8389C29.8389 14.3556 29.8389 14.5432 29.8389 14.7552C29.8389 14.8406 29.8389 14.9128 29.8389 14.9701C29.8389 15.9937 30.4317 16.6572 30.4317 16.6572L31.0198 17.3122V17.3009L31.0232 17.3122C31.0232 17.3124 31.0232 16.1393 31.0232 14.7552Z" fill="white"/>
<path d="M29.8389 19.8011C29.8389 20.0121 29.8389 20.227 29.8389 20.4431H31.0232C31.0232 20.2008 31.0232 20.0132 31.0232 19.8011C31.0232 19.7158 31.0232 19.6431 31.0232 19.5863C31.0232 18.5627 30.4304 17.8992 30.4304 17.8992L29.8423 17.2441V17.255L29.8389 17.2441C29.8389 17.244 29.8389 18.417 29.8389 19.8011Z" fill="white"/>
</svg>
