<?xml version="1.0" standalone="no"?><!DOCTYPE svg PUBLIC "-//W3C//DTD SVG 1.1//EN" "http://www.w3.org/Graphics/SVG/1.1/DTD/svg11.dtd"><svg t="1749797629470" class="icon" viewBox="0 0 1024 1024" version="1.1" xmlns="http://www.w3.org/2000/svg" p-id="8311" xmlns:xlink="http://www.w3.org/1999/xlink" width="200" height="200"><path d="M304.121862 424.926001A207.760085 207.760085 0 1 1 511.881947 631.918264a207.376174 207.376174 0 0 1-207.760085-206.992263M511.881947 283.390643a141.599344 141.599344 0 1 0 142.367167 141.535358A141.91927 141.91927 0 0 0 511.881947 283.390643M0 512.073903a511.881947 511.881947 0 1 1 187.476763 396.004671A511.881947 511.881947 0 0 1 0 512.073903m779.788161 357.229614a141.663329 141.663329 0 0 0-137.248347-106.727386H381.160095a141.663329 141.663329 0 0 0-137.248347 106.727386 446.553014 446.553014 0 0 0 535.876413 0M511.881947 65.520889a446.553014 446.553014 0 0 0-320.949981 757.0734 206.992262 206.992262 0 0 1 190.228129-125.347092h261.379719a206.992262 206.992262 0 0 1 190.228129 125.347092A446.553014 446.553014 0 0 0 511.881947 65.520889" p-id="8312"></path></svg>