<?xml version="1.0" standalone="no"?><!DOCTYPE svg PUBLIC "-//W3C//DTD SVG 1.1//EN" "http://www.w3.org/Graphics/SVG/1.1/DTD/svg11.dtd"><svg t="1745721761655" class="icon" viewBox="0 0 1024 1024" version="1.1" xmlns="http://www.w3.org/2000/svg" p-id="4519" xmlns:xlink="http://www.w3.org/1999/xlink" width="200" height="200"><path d="M512 192c164.949333 0 298.666667 133.717333 298.666667 298.666667 0 110.549333-60.053333 207.061333-149.333334 258.709333V832a149.333333 149.333333 0 0 1-298.666666 0v-82.624c-89.28-51.648-149.333333-148.16-149.333334-258.709333 0-164.949333 133.717333-298.666667 298.666667-298.666667z m64 590.464c-20.629333 4.48-42.026667 6.869333-64 6.869333s-43.392-2.368-64-6.869333V832a64 64 0 0 0 127.893333 3.754667L576 832v-49.536z m271.082667-38.4l30.165333 30.186667a21.333333 21.333333 0 0 1 0 30.165333l-30.165333 30.165333a21.333333 21.333333 0 0 1-30.165334 0l-30.165333-30.165333a21.333333 21.333333 0 0 1 0-30.165333l30.165333-30.165334a21.333333 21.333333 0 0 1 30.165334 0z m-670.165334 0a21.333333 21.333333 0 0 1 30.165334 0l30.165333 30.186667a21.333333 21.333333 0 0 1 0 30.165333l-30.165333 30.165333a21.333333 21.333333 0 0 1-30.165334 0l-30.165333-30.165333a21.333333 21.333333 0 0 1 0-30.165333l30.165333-30.165334zM512 277.333333c-117.824 0-213.333333 95.509333-213.333333 213.333334s95.509333 213.333333 213.333333 213.333333 213.333333-95.509333 213.333333-213.333333-95.509333-213.333333-213.333333-213.333334z m448 170.666667a21.333333 21.333333 0 0 1 21.333333 21.333333v42.666667a21.333333 21.333333 0 0 1-21.333333 21.333333h-42.666667a21.333333 21.333333 0 0 1-21.333333-21.333333v-42.666667a21.333333 21.333333 0 0 1 21.333333-21.333333h42.666667zM106.666667 448a21.333333 21.333333 0 0 1 21.333333 21.333333v42.666667a21.333333 21.333333 0 0 1-21.333333 21.333333H64a21.333333 21.333333 0 0 1-21.333333-21.333333v-42.666667a21.333333 21.333333 0 0 1 21.333333-21.333333h42.666667zM847.082667 189.418667l30.165333 30.165333a21.333333 21.333333 0 0 1 0 30.165333l-30.165333 30.165334a21.333333 21.333333 0 0 1-30.165334 0l-30.165333-30.165334a21.333333 21.333333 0 0 1 0-30.165333l30.165333-30.165333a21.333333 21.333333 0 0 1 30.165334 0z m-640 0l30.165333 30.165333a21.333333 21.333333 0 0 1 0 30.165333l-30.165333 30.165334a21.333333 21.333333 0 0 1-30.165334 0l-30.165333-30.165334a21.333333 21.333333 0 0 1 0-30.165333l30.165333-30.165333a21.333333 21.333333 0 0 1 30.165334 0zM533.333333 42.666667a21.333333 21.333333 0 0 1 21.333334 21.333333v42.666667a21.333333 21.333333 0 0 1-21.333334 21.333333h-42.666666a21.333333 21.333333 0 0 1-21.333334-21.333333V64a21.333333 21.333333 0 0 1 21.333334-21.333333h42.666666z" fill="#000000" p-id="4520"></path></svg>